# xmcd CD database file
#
# Track frame offsets:
#	150
#	19243
#	34285
#	50368
#	64672
#	77319
#	93532
#	107817
#	120243
#	132541
#	145507
#	159312
#	173077
#	188215
#	198417
#	211323
#	226869
#	238244
#
# Disc length: 3476 seconds
#
# Revision: 0
# Processed by: cddbd v1.4PL0 Copyright (c) Steve Scherf et al.
# Submitted via: Feurio! 1.63 - http://www.feurio.com
#
DISCID=ed0d9212
DTITLE=Norteño De Norteño - Solo Lo Mejor
DYEAR=1900
DGENRE=
TTITLE0=Intro Mix - Mix
TTITLE1=Cadetes De Linares - El Palomito
TTITLE2=Federico Villa - Caminos de Michoacan
TTITLE3=Carlos Y Jose - El Chubasco
TTITLE4=Carlos Y Jose - Flor De Capomo
TTITLE5=Los Barodaca - Y Por Esa Calle
TTITLE6=Ramon Ayala - Vestida De Color De Rosa
TTITLE7=Ramon Ayala - Bonita Finca De Adobe
TTITLE8=Invasores De N.L. - Mi Casa Nueva
TTITLE9=Lorenzo De Monteclaro - El Ausente
TTITLE10=Invasores De N.L. - Eslabon Pro Eslabon
TTITLE11=Carlos Y Jose - Amores Fingidos
TTITLE12=Baron De Apodaca - Cuando Nadie Te Quiera
TTITLE13=Invasores De N.L.. - Aguanta Corazón
TTITLE14=Ramon Ayala - Mi Golondrina
TTITLE15=Ramon Ayala - Dos Monedas
TTITLE16=Los Hermanos Banda - Anillo Grabado
TTITLE17=Los Pedernales - La Del Moño Colorado
EXTD=
EXTT0=
EXTT1=
EXTT2=
EXTT3=
EXTT4=
EXTT5=
EXTT6=
EXTT7=
EXTT8=
EXTT9=
EXTT10=
EXTT11=
EXTT12=
EXTT13=
EXTT14=
EXTT15=
EXTT16=
EXTT17=
PLAYORDER=
